HIERARCHY
ROOT Hips
{
	OFFSET 0.00000 0.00000 0.00000
	CHANNELS 6 Xposition Yposition Zposition Yrotation Zrotation Xrotation 
	JOINT Lumbar
	{
		OFFSET 0 0 0
		CHANNELS 3 Zrotation Xrotation Yrotation
		JOINT Neck
		{
			OFFSET 0.00 0.2701 0.00
			CHANNELS 3 Zrotation Xrotation Yrotation
			End Site
			{
				OFFSET 0.00 0.1379 0.00
			}
		}
		JOINT RightShoulder
		{
			OFFSET 0.0119 0.2289 0.1181
			CHANNELS 3 Zrotation Xrotation Yrotation
			JOINT RightElbow
			{
				OFFSET 0.00 -0.1475 0.00
				CHANNELS 2 Zrotation Yrotation
				JOINT RightWrist
				{
					OFFSET 0.00 -0.1605 0.00
					CHANNELS 2 Zrotation Xrotation
					End Site
					{
						OFFSET 0.0040 -0.1068 0.0006
					}
				}
			}
		}
		JOINT LeftShoulder
		{
			OFFSET 0.0119 0.2289 -0.1181
			CHANNELS 3 Zrotation Xrotation Yrotation
			JOINT LeftElbow
			{
				OFFSET 0.00 -0.1475 0.00
				CHANNELS 2 Zrotation Yrotation
				JOINT LeftWrist
				{
					OFFSET 0.00 -0.1605 0.00
					CHANNELS 2 Zrotation Xrotation
					End Site
					{
						OFFSET 0.0040 -0.1068 -0.0006
					}
				}
			}
		}
	}
	JOINT RightHip
	{
		OFFSET 0.0316 -0.0424 0.0458
		CHANNELS 3 Zrotation Xrotation Yrotation
		JOINT RightKnee
		{
			OFFSET 0.00 -0.2438 0.00
			CHANNELS 1 Zrotation
			JOINT RightAnkle
			{
				OFFSET 0.00 -0.2449 0.00
				CHANNELS 3 Zrotation Xrotation Yrotation
				End Site
				{
					OFFSET 0.1237 -0.0542 0.0051
				}
			}
		}
	}
	JOINT LeftHip
	{
		OFFSET 0.0316 -0.0424 -0.0458
		CHANNELS 3 Zrotation Xrotation Yrotation
		JOINT LeftKnee
		{
			OFFSET 0.00 -0.2438 0.00
			CHANNELS 1 Zrotation
			JOINT LeftAnkle
			{
				OFFSET 0.00 -0.2449 0.00
				CHANNELS 3 Zrotation Xrotation Yrotation
				End Site
				{
					OFFSET 0.1237 -0.0542 -0.0051
				}
			}
		}
	}
}
MOTION
Frames: 29
Frame Time: 0.02
0 0.57926 -0 -87.90907 0 2.83848 6.53855 -3.88998 -2.92229 -38.41759 5.37732 5.60418 27.0878 -20.08962 -10.65119 11.62986 85.48406 1.85395 2.85452 33.09361 3.7711 21.37651 8.74639 -77.84763 -10.42188 2.67061 5.4195 -0.17034 21.97309 -26.86464 12.76712 -11.10992 -16.26397 0.50537 -4.90522 -0.13357 -17.50501 9.73817 9.04715 14.34662
-0.00057 0.57921 0.00048 -87.89433 0 2.76572 6.57548 -3.85571 -2.96797 -38.32247 5.45915 5.56365 27.11216 -20.11525 -10.48921 11.72052 85.43019 1.84413 2.83012 33.08802 3.76129 21.13838 8.80568 -77.85839 -10.41908 2.70536 5.34196 -0.07313 21.85097 -26.78321 12.76842 -11.13659 -16.20181 0.53503 -4.77734 -0.12585 -17.65614 9.80868 9.09604 14.33139
-0.00115 0.57917 0.00097 -87.88057 0 2.69305 6.61255 -3.82124 -3.01329 -38.22797 5.54056 5.52374 27.13656 -20.14107 -10.32743 11.81105 85.37641 1.83425 2.80555 33.08165 3.75089 20.90296 8.86404 -77.86816 -10.41587 2.73946 5.26438 0.02394 21.73021 -26.70158 12.76957 -11.16311 -16.13987 0.56415 -4.64986 -0.11781 -17.80648 9.87895 9.14471 14.3169
-0.00172 0.57912 0.00146 -87.87028 0 2.62015 6.65051 -3.78558 -3.05721 -38.13551 5.62087 5.48576 27.16178 -20.16774 -10.16541 11.90168 85.32264 1.82399 2.78014 33.07346 3.73842 20.67416 8.91966 -77.87422 -10.41133 2.77084 5.18616 0.12109 21.6139 -26.61862 12.77011 -11.18942 -16.07858 0.59162 -4.52309 -0.10895 -17.95499 9.94869 9.19275 14.30548
-0.0023 0.57907 0.00192 -87.84124 0 2.54865 6.68372 -3.75618 -3.10807 -38.0328 5.70675 5.43739 27.18315 -20.18977 -10.0053 11.9915 85.26906 1.81569 2.75927 33.07655 3.73735 20.40801 8.99031 -77.90011 -10.41422 2.81605 5.11166 0.21746 21.47421 -26.54305 12.77381 -11.21697 -16.01427 0.62808 -4.39299 -0.10507 -18.11305 10.02092 9.24388 14.27812
-0.00285 0.57902 0.00244 -87.85212 0 2.47413 6.72695 -3.7136 -3.14451 -37.95151 5.78097 5.41116 27.21231 -20.22167 -9.84091 12.08312 85.21498 1.80329 2.72879 33.05468 3.71186 20.22267 9.02873 -77.88393 -10.40113 2.83234 5.02915 0.3156 21.384 -26.45167 12.77087 -11.24179 -15.95615 0.64535 -4.26973 -0.09023 -18.25085 10.08801 9.28858 14.28427
-0.0033 0.579 0.00309 -87.97577 0 2.38998 6.80012 -3.63186 -3.13797 -37.93235 5.82196 5.44649 27.26725 -20.28166 -9.6635 12.18086 85.15923 1.77865 2.67015 32.97001 3.61855 20.25091 8.97907 -77.7473 -10.3442 2.76317 4.92321 0.41993 21.4341 -26.31458 12.74832 -11.26032 -15.91641 0.60926 -4.16539 -0.04713 -18.33346 10.14073 9.31462 14.38845
-0.00371 0.57898 0.00378 -88.13944 0 2.30297 6.88305 -3.53725 -3.11737 -37.93425 5.85131 5.50406 27.32929 -20.35136 -9.48204 12.28024 85.103 1.75006 2.60209 32.85895 3.50068 20.3627 8.89663 -77.56866 -10.27107 2.66574 4.80934 0.5259 21.53362 -26.16184 12.71926 -11.27593 -15.8827 0.55375 -4.06789 0.00748 -18.39544 10.18831 9.33433 14.52555
-0.00413 0.57896 0.00445 -88.28324 0 2.21792 6.96014 -3.45018 -3.10538 -37.92455 5.88684 5.55133 27.38543 -20.41633 -9.30271 12.37834 85.04707 1.72383 2.53929 32.75588 3.394 20.44234 8.8285 -77.41205 -10.20505 2.58487 4.69973 0.63043 21.60812 -26.01731 12.69394 -11.29209 -15.84525 0.50739 -3.96702 0.05814 -18.46662 10.23849 9.35761 14.64416
-0.00455 0.57894 0.00514 -88.43391 0 2.12988 7.04318 -3.35586 -3.08438 -37.92341 5.91905 5.59974 27.45301 -20.48327 -9.12122 12.47897 84.99067 1.69507 2.47223 32.66968 3.28667 20.49676 8.76288 -77.24373 -10.13993 2.48846 4.58717 0.73797 21.69311 -25.86781 12.66529 -11.31143 -15.81177 0.45993 -3.86699 0.10329 -18.53904 10.28771 9.37812 14.77769
-0.00498 0.57892 0.00581 -88.58003 0 2.04763 7.1161 -3.27372 -3.07831 -37.90944 5.95486 5.65065 27.49823 -20.54758 -8.94448 12.57434 84.93532 1.67082 2.41198 32.54211 3.17553 20.62439 8.68419 -77.08898 -10.06928 2.4175 4.4791 0.83949 21.7684 -25.72538 12.64207 -11.32358 -15.77178 0.40982 -3.76716 0.16277 -18.60334 10.33748 9.4027 14.88792
-0.00544 0.57889 0.00642 -88.7016 0 1.97957 7.15923 -3.22691 -3.12092 -37.85525 6.00818 5.70652 27.48205 -20.60953 -8.77148 12.65835 84.8815 1.65881 2.37119 32.30726 3.05408 20.92692 8.57781 -76.98942 -9.98571 2.42564 4.38321 0.92542 21.8004 -25.602 12.63482 -11.31523 -15.70922 0.35999 -3.66323 0.25806 -18.65578 10.39207 9.44171 14.92603
-0.0059 0.57885 0.00702 -88.81748 0 1.91767 7.19178 -3.19282 -3.17814 -37.78765 6.06461 5.76356 27.44291 -20.66718 -8.60554 12.73656 84.82917 1.65196 2.3379 32.03218 2.93072 21.30175 8.4593 -76.90376 -9.89737 2.46003 4.29241 1.00503 21.82121 -25.48672 12.63317 -11.29983 -15.64035 0.30768 -3.55962 0.36752 -18.69973 10.447 9.48474 14.93947
-0.00636 0.57882 0.00763 -88.93758 0 1.85481 7.22878 -3.15416 -3.22621 -37.72559 6.11655 5.81771 27.41272 -20.72197 -8.44285 12.8148 84.77694 1.6432 2.30223 31.77448 2.81205 21.64766 8.34612 -76.80663 -9.81238 2.48109 4.20081 1.08652 21.85073 -25.37106 12.62958 -11.28878 -15.5766 0.25456 -3.45805 0.47122 -18.7439 10.50041 9.52481 14.9641
-0.00683 0.57879 0.00824 -89.05277 0 1.78491 7.2675 -3.11096 -3.28494 -37.66542 6.18119 5.88233 27.38834 -20.79724 -8.25181 12.90316 84.72085 1.63142 2.26182 31.51731 2.67642 21.97894 8.23267 -76.72905 -9.72212 2.50696 4.10295 1.17198 21.86893 -25.24247 12.62399 -11.2735 -15.50416 0.20868 -3.34826 0.57269 -18.80264 10.5594 9.56939 14.99014
-0.00727 0.57876 0.00883 -89.17558 0 1.73013 7.30017 -3.07911 -3.3244 -37.59932 6.22009 5.92545 27.3472 -20.82892 -8.1227 12.97021 84.67388 1.62851 2.23324 31.25278 2.57592 22.35793 8.11719 -76.61552 -9.64156 2.52955 4.01892 1.248 21.90456 -25.14098 12.62298 -11.26448 -15.44751 0.14771 -3.25465 0.6817 -18.8294 10.60693 9.60568 15.00673
-0.00764 0.57873 0.00939 -89.32611 0 1.72504 7.31705 -3.08703 -3.31375 -37.50673 6.18859 5.9056 27.25718 -20.73926 -8.15237 12.97118 84.6452 1.63742 2.23449 30.95183 2.57397 22.83889 8.00076 -76.39152 -9.59232 2.53571 3.97641 1.29605 22.01522 -25.12984 12.6422 -11.28258 -15.4425 0.04309 -3.21398 0.81008 -18.76889 10.62243 9.61742 15.00517
-0.00799 0.5787 0.00992 -89.48282 0 1.73348 7.32838 -3.10405 -3.28229 -37.41049 6.13079 5.8643 27.15219 -20.60609 -8.24561 12.95351 84.62662 1.65706 2.24726 30.64932 2.60764 23.36591 7.88282 -76.13249 -9.55261 2.53793 3.94682 1.33522 22.1391 -25.14284 12.66441 -11.3059 -15.45255 -0.07599 -3.18829 0.94459 -18.67678 10.62639 9.62078 14.99447
-0.00833 0.57868 0.01044 -89.63371 0 1.72921 7.34343 -3.10915 -3.25569 -37.3253 6.08421 5.83519 27.05986 -20.49431 -8.31724 12.94871 84.60802 1.67954 2.25593 30.36531 2.62409 23.88102 7.76427 -75.89488 -9.5062 2.54283 3.90833 1.38098 22.24074 -25.13297 12.67914 -11.32128 -15.45119 -0.18673 -3.14988 1.07564 -18.59987 10.63597 9.62854 14.98646
-0.00872 0.57862 0.01102 -89.79923 0 1.75174 7.35344 -3.14675 -3.24786 -37.20224 6.04108 5.79693 26.94357 -20.37611 -8.36035 12.92093 84.57121 1.67036 2.26156 30.00686 2.64375 24.36598 7.64965 -75.63469 -9.46896 2.54515 3.88277 1.41663 22.41027 -25.17225 12.71901 -11.35916 -15.46812 -0.30531 -3.13526 1.21228 -18.51904 10.64429 9.63419 14.98358
-0.00901 0.57864 0.01149 -89.93318 0 1.72296 7.37228 -3.11969 -3.19725 -37.15456 5.98416 5.77124 26.872 -20.26033 -8.47542 12.94192 84.5734 1.72869 2.27427 29.80098 2.66654 24.91701 7.52803 -75.4128 -9.41578 2.55123 3.83332 1.4702 22.44203 -25.11652 12.70828 -11.35244 -15.45159 -0.41062 -3.07611 1.33574 -18.43908 10.65211 9.64189 14.96845
-0.00905 0.57889 0.01171 -90.00084 0 1.53735 7.4209 -2.90281 -3.02111 -37.34026 5.89877 5.79744 26.94311 -20.16812 -8.79472 13.06361 84.69229 1.97893 2.31968 30.04019 2.67734 25.69601 7.37585 -75.3075 -9.30928 2.5715 3.7143 1.58495 22.08702 -24.77758 12.54721 -11.21333 -15.33054 -0.47859 -2.87781 1.44543 -18.36846 10.66456 9.65974 14.91921
-0.009 0.57921 0.01185 -90.03242 0 1.30183 7.47787 -2.62211 -2.80484 -37.59769 5.80003 5.83497 27.05625 -20.07909 -9.18042 13.24657 84.848 2.29534 2.36866 30.42908 2.69195 26.5287 7.21895 -75.24159 -9.1877 2.59509 3.5709 1.71626 21.5936 -24.34495 12.33691 -11.0307 -15.17689 -0.53217 -2.63655 1.53721 -18.29998 10.6763 9.67945 14.8585
-0.00898 0.57949 0.01202 -90.06574 0 1.09683 7.52842 -2.37659 -2.6152 -37.80613 5.705 5.85924 27.14099 -19.98403 -9.5217 13.4213 84.97925 2.57598 2.40569 30.734 2.71304 27.2995 7.07181 -75.15592 -9.07769 2.61511 3.43885 1.83384 21.16557 -23.96496 12.1556 -10.87323 -15.04373 -0.5905 -2.42311 1.62112 -18.23111 10.68631 9.69672 14.80487
-0.00898 0.5798 0.01217 -90.16082 0 0.85908 7.58991 -2.10558 -2.38974 -38.08274 5.61807 5.91622 27.26738 -19.9052 -9.92477 13.49483 85.14324 2.88053 2.48731 31.10515 2.70205 28.2312 6.89225 -75.07634 -8.94832 2.64348 3.30589 1.97747 20.72726 -23.54332 11.9465 -10.69312 -14.88717 -0.65692 -2.17496 1.77228 -18.15873 10.70465 9.7205 14.74321
-0.00892 0.58007 0.01236 -90.11904 0 0.67767 7.63059 -1.87207 -2.22918 -38.23558 5.51262 5.90902 27.31352 -19.7959 -10.2148 13.81617 85.24793 3.15151 2.47604 31.3752 2.75665 28.8387 6.7794 -74.99457 -8.8553 2.65558 3.16913 2.07065 20.27763 -23.18592 11.78352 -10.54987 -14.77135 -0.70282 -1.98897 1.77973 -18.0945 10.70556 9.73117 14.69542
-0.00875 0.58019 0.01268 -89.70444 0 0.66257 7.61234 -1.76013 -2.2615 -38.01937 5.34884 5.71323 27.15919 -19.58389 -10.17051 14.62114 85.17729 3.30609 2.21369 31.3187 3.0061 28.54803 6.84941 -74.89148 -8.86854 2.61965 3.02561 2.02264 19.82803 -23.02829 11.76014 -10.51805 -14.77652 -0.696 -1.98289 1.3887 -18.05319 10.65909 9.70606 14.69105
-0.00852 0.58026 0.01304 -89.15413 0 0.70604 7.57276 -1.68756 -2.35977 -37.67808 5.16875 5.45402 26.91681 -19.34411 -10.01146 15.7109 85.04597 3.4246 1.85683 31.1574 3.31883 27.92742 6.98712 -74.78606 -8.91841 2.56771 2.87954 1.92303 19.37233 -22.93863 11.7848 -10.52493 -14.82366 -0.66885 -2.04113 0.85487 -18.02001 10.59508 9.66759 14.70063
-0.00831 0.58035 0.01338 -88.66821 0 0.72365 7.54264 -1.59542 -2.42556 -37.40027 5.00334 5.22974 26.6943 -19.12966 -9.90791 16.78867 84.94431 3.56623 1.53864 31.05102 3.59238 27.45056 7.09555 -74.68557 -8.95004 2.5246 2.73592 1.84551 18.92096 -22.81794 11.78734 -10.51477 -14.85118 -0.65069 -2.07145 0.3902 -17.98258 10.53875 9.63464 14.70241
